PathFileType	4	(X/Y/Z)	D:\walkingproject\041602jb\041602jb1.trc																																																																																		
DataRate	CameraRate	NumFrames	NumMarkers	Units	OrigDataRate	OrigDataStartFrame	OrigNumFrames																																																																														
120	120	15	28	mm	120	91	240																																																																														
Frame#	Time	head vertex			right ear			left ear			r scapula			right shoulder			left shoulder			sacrum			right elbow			right wrist			left elbow			left wrist			right g. trochanter			rigth mid-thigh			right knee			right tibia			right ankle			right heel			right mth			left g. trochanter			left mid-thigh			left knee			left tibia			left ankle			left heel			left mth			slider			fixed 1			fixed 2		
		X1	Y1	Z1	X2	Y2	Z2	X3	Y3	Z3	X4	Y4	Z4	X5	Y5	Z5	X6	Y6	Z6	X7	Y7	Z7	X8	Y8	Z8	X9	Y9	Z9	X10	Y10	Z10	X11	Y11	Z11	X12	Y12	Z12	X13	Y13	Z13	X14	Y14	Z14	X15	Y15	Z15	X16	Y16	Z16	X17	Y17	Z17	X18	Y18	Z18	X19	Y19	Z19	X20	Y20	Z20	X21	Y21	Z21	X22	Y22	Z22	X23	Y23	Z23	X24	Y24	Z24	X25	Y25	Z25	X26	Y26	Z26	X27	Y27	Z27	X28	Y28	Z28
																																																																																					
91	0.75	346.50888	248.64711	1727.34961	400.1142	152.4783	1623.69189	398.32861	364.05527	1634.42993	236.19939	180.59479	1331.26648	382.31161	18.11372	1344.71387	380.78183	499.24301	1365.48694	288.38379	257.87256	984.56274	385.44058	-27.21058	1109.58826	616.9433	25.1113	1155.83923	413.45673	544.49756	1102.29053	619.24121	458.14178	1158.00488	427.74551	57.63385	879.78015				359.11893	80.63588	479.28055	389.45969	134.43808	229.14085	343.81305	123.35787	95.28453	254.44104	165.35875	37.98455	452.38889	83.77427	13.14709	446.48013	456.70007	865.95166				379.79675	419.5321	481.96912	409.71289	391.50723	336.35132	336.18735	371.80756	92.32047	260.23984	324.35254	36.48975	448.23346	415.12891	2.60063	965.67474	-21.40953	9.74698	1955.65491	-11.8066	-14.00936	-4.2835	0.95118	8.9866
92	0.758	346.73792	248.76527	1727.3988	399.69556	152.56883	1623.53674	398.32861	364.05527	1634.42993	236.19939	180.59479	1331.26648	382.31161	18.11372	1344.71387	380.98087	499.47122	1365.76135	288.38379	257.87256	984.56274	385.00391	-27.93872	1110.42468	616.9433	25.1113	1155.83923	413.51349	544.50897	1101.97717	619.24121	458.14178	1158.00488	427.74551	57.63385	879.78015				357.50327	80.81096	478.75668	389.74646	134.73021	228.75128	343.81305	123.35787	95.28453	254.87334	165.1451	37.88887	452.17593	84.10741	13.37262	447.33188	456.63245	866.21979				379.79675	419.5321	481.96912	409.71289	391.50723	336.35132	335.96484	372.28149	92.2765	260.23984	324.35254	36.48975	448.23346	415.12891	2.60063	965.67474	-21.40953	9.74698	1955.65491	-11.8066	-14.00936	-4.2835	0.95118	8.9866
93	0.767	346.13675	248.85666	1727.40112	399.69556	152.56883	1623.53674	398.30362	364.25098	1635.00586	236.63293	180.64833	1331.27136	382.31161	18.11372	1344.71387	380.78183	499.24301	1365.48694	288.38379	257.87256	984.56274	385.00391	-27.93872	1110.42468	616.9433	25.1113	1155.83923	413.45673	544.49756	1102.29053	619.24121	458.14178	1158.00488	427.74551	57.63385	879.78015				358.37079	80.88235	479.16693	389.74646	134.73021	228.75128	344.12784	123.70636	94.96516	254.59322	165.2339	38.26465	452.17593	84.10741	13.37262	446.73975	456.66064	866.23138				379.79675	419.5321	481.96912	409.98364	391.3334	336.61823	336.18735	371.80756	92.32047	260.23984	324.35254	36.48975	447.66922	415.13538	2.67758	965.91101	-21.14479	9.93127	1955.65491	-11.8066	-14.00936	-4.2835	0.95118	8.9866
94	0.775	346.50888	248.64711	1727.34961	400.1142	152.4783	1623.69189	398.32861	364.05527	1634.42993	236.63293	180.64833	1331.27136	382.31161	18.11372	1344.71387	380.78183	499.24301	1365.48694	288.38379	257.87256	984.56274	385.00391	-27.93872	1110.42468	616.9433	25.1113	1155.83923	413.45673	544.49756	1102.29053	619.24121	458.14178	1158.00488	427.74551	57.63385	879.78015				358.37079	80.88235	479.16693	389.74646	134.73021	228.75128	343.81305	123.35787	95.28453	254.87334	165.1451	37.88887	452.17593	84.10741	13.37262	447.33188	456.63245	866.21979				379.79675	419.5321	481.96912	410.13165	391.14804	336.4848	335.96484	372.28149	92.2765	260.23984	324.35254	36.48975	447.66922	415.13538	2.67758	965.67474	-21.40953	9.74698	1955.65491	-11.8066	-14.00936	-4.2835	0.95118	8.9866
95	0.783	346.36578	248.97484	1727.45032	399.69556	152.56883	1623.53674	398.58926	364.73999	1634.75623	236.63293	180.64833	1331.27136	381.89178	18.21559	1344.74487	380.78183	499.24301	1365.48694	288.38379	257.87256	984.56274	385.00391	-27.93872	1110.42468	616.9433	25.1113	1155.83923	413.45673	544.49756	1102.29053	619.24121	458.14178	1158.00488	426.94061	57.99343	879.56177				358.37079	80.88235	479.16693	389.74646	134.73021	228.75128	343.81305	123.35787	95.28453	254.87334	165.1451	37.88887	452.17593	84.10741	13.37262	447.02374	456.67575	865.92419				379.55807	419.58469	481.65533	409.85529	390.59079	337.03076	336.18735	371.80756	92.32047	260.23984	324.35254	36.48975	447.66922	415.13538	2.67758	965.67474	-21.40953	9.74698	1955.65491	-11.8066	-14.00936	-4.2835	0.95118	8.9866
96	0.792	346.9924	249.02251	1727.7926	399.78003	152.62297	1623.65149	398.52466	364.23608	1634.72681	236.63293	180.64833	1331.27136	381.89178	18.21559	1344.74487	380.78183	499.24301	1365.48694	288.38379	257.87256	984.56274	385.68546	-27.61	1110.11255	616.9433	25.1113	1155.83923	413.51349	544.50897	1101.97717	619.24121	458.14178	1158.00488	427.74551	57.63385	879.78015				358.37079	80.88235	479.16693	389.74646	134.73021	228.75128	343.81305	123.35787	95.28453	254.59322	165.2339	38.26465	452.17593	84.10741	13.37262	446.48013	456.70007	865.95166				379.79675	419.5321	481.96912	409.43655	390.95007	336.89728	336.18735	371.80756	92.32047	259.88281	324.29709	36.56703	447.66922	415.13538	2.67758	965.91101	-21.14479	9.93127	1956.15808	-11.79542	-13.62272	-4.2835	0.95118	8.9866
97	0.8	346.62027	249.23212	1727.84412	399.69556	152.56883	1623.53674	398.58926	364.73999	1634.75623	236.63293	180.64833	1331.27136	382.31161	18.11372	1344.71387	380.53656	499.39612	1365.21729	288.38379	257.87256	984.56274	385.00391	-27.93872	1110.42468	616.9433	25.1113	1155.83923	413.51349	544.50897	1101.97717	619.24121	458.14178	1158.00488	426.94061	57.99343	879.56177				358.37079	80.88235	479.16693	389.74646	134.73021	228.75128	343.81305	123.35787	95.28453	254.62224	164.95169	38.46188	452.17593	84.10741	13.37262	447.33188	456.63245	866.21979				379.79675	419.5321	481.96912	409.96365	390.65836	336.5134	336.18735	371.80756	92.32047	260.23984	324.35254	36.48975	447.83942	415.06601	3.03345	965.91101	-21.14479	9.93127	1955.65491	-11.8066	-14.00936	-4.2835	0.95118	8.9866
98	0.808	346.88828	249.28099	1727.78491	399.69556	152.56883	1623.53674	398.58926	364.73999	1634.75623	236.63293	180.64833	1331.27136	381.89178	18.21559	1344.74487	380.78183	499.24301	1365.48694	288.38379	257.87256	984.56274	385.00391	-27.93872	1110.42468	616.9433	25.1113	1155.83923	413.51349	544.50897	1101.97717	619.24121	458.14178	1158.00488	427.74551	57.63385	879.78015				358.37079	80.88235	479.16693	389.80856	135.48361	228.73669	343.81305	123.35787	95.28453	255.02554	165.02025	38.16899	452.17593	84.10741	13.37262	446.73975	456.66064	866.23138				379.79675	419.5321	481.96912	409.96365	390.65836	336.5134	336.18735	371.80756	92.32047	260.23984	324.35254	36.48975	447.66922	415.13538	2.67758	965.91101	-21.14479	9.93127	1955.65491	-11.8066	-14.00936	-4.2835	0.95118	8.9866
99	0.817	346.88828	249.28099	1727.78491	399.69556	152.56883	1623.53674	398.58926	364.73999	1634.75623	236.63293	180.64833	1331.27136	382.31161	18.11372	1344.71387	380.57007	499.23743	1365.20703	288.38379	257.87256	984.56274	385.00391	-27.93872	1110.42468	616.9433	25.1113	1155.83923	413.51349	544.50897	1101.97717	619.24121	458.14178	1158.00488	427.74551	57.63385	879.78015				358.37079	80.88235	479.16693	389.74646	134.73021	228.75128	343.81305	123.35787	95.28453	255.02554	165.02025	38.16899	452.17593	84.10741	13.37262	447.63034	456.64551	865.9267				379.79675	419.5321	481.96912	410.38239	390.2991	336.64688	336.18735	371.80756	92.32047	260.23984	324.35254	36.48975	447.66922	415.13538	2.67758	965.67474	-21.40953	9.74698	1955.65491	-11.8066	-14.00936	-4.2835	0.95118	8.9866
100	0.825	346.81845	249.16684	1727.55945	399.69556	152.56883	1623.53674	398.58926	364.73999	1634.75623	236.63293	180.64833	1331.27136	382.31161	18.11372	1344.71387	380.53656	499.39612	1365.21729	288.38379	257.87256	984.56274	385.00391	-27.93872	1110.42468	616.65704	24.4938	1156.26953	413.51349	544.50897	1101.97717	619.24121	458.14178	1158.00488	427.74551	57.63385	879.78015				358.37079	80.88235	479.16693	389.80856	135.48361	228.73669	343.81305	123.35787	95.28453	254.87334	165.1451	37.88887	452.17593	84.10741	13.37262	446.73804	456.7164	865.64575				379.55807	419.58469	481.65533	410.38239	390.2991	336.64688	336.18735	371.80756	92.32047	260.23984	324.35254	36.48975	447.66922	415.13538	2.67758	965.67474	-21.40953	9.74698	1955.65491	-11.8066	-14.00936	-4.2835	0.95118	8.9866
101	0.833	346.81845	249.16684	1727.55945	400.18381	152.71545	1623.48401	398.58926	364.73999	1634.75623	236.63293	180.64833	1331.27136	382.31161	18.11372	1344.71387	380.53656	499.39612	1365.21729	288.38379	257.87256	984.56274	385.00391	-27.93872	1110.42468	616.9433	25.1113	1155.83923	413.84515	543.99536	1101.26587	619.24121	458.14178	1158.00488	426.94061	57.99343	879.56177				357.50327	80.81096	478.75668	389.80856	135.48361	228.73669	343.81305	123.35787	95.28453	255.02554	165.02025	38.16899	452.17593	84.10741	13.37262	447.33188	456.63245	866.21979				379.79675	419.5321	481.96912	409.96365	390.65836	336.5134	336.18735	371.80756	92.32047	259.88281	324.29709	36.56703	447.66922	415.13538	2.67758	965.67474	-21.40953	9.74698	1955.65491	-11.8066	-14.00936	-4.2835	0.95118	8.9866
102	0.842	347.07721	249.61246	1727.80652	400.18381	152.71545	1623.48401	398.58926	364.73999	1634.75623	236.63293	180.64833	1331.27136	381.89178	18.21559	1344.74487	380.32483	499.39047	1364.93738	288.38379	257.87256	984.56274	385.00391	-27.93872	1110.42468	616.9433	25.1113	1155.83923	413.71414	544.02667	1101.56104	619.24121	458.14178	1158.00488	427.74551	57.63385	879.78015				358.37079	80.88235	479.16693	389.80856	135.48361	228.73669	343.81305	123.35787	95.28453	254.87334	165.1451	37.88887	452.17593	84.10741	13.37262	447.63034	456.64551	865.9267				379.55807	419.58469	481.65533	409.6929	390.83218	336.24643	336.18735	371.80756	92.32047	259.88281	324.29709	36.56703	447.66922	415.13538	2.67758	965.91101	-21.14479	9.93127	1955.65491	-11.8066	-14.00936	-4.2835	0.95118	8.9866
103	0.85	347.07721	249.61246	1727.80652	400.18381	152.71545	1623.48401	398.64871	364.97195	1634.67944	236.63293	180.64833	1331.27136	382.31161	18.11372	1344.71387	380.32483	499.39047	1364.93738	288.38379	257.87256	984.56274	385.00391	-27.93872	1110.42468	616.65704	24.4938	1156.26953	413.39374	544.9389	1101.90137	619.24121	458.14178	1158.00488	427.74551	57.63385	879.78015				358.37079	80.88235	479.16693	389.74646	134.73021	228.75128	343.81305	123.35787	95.28453	254.59322	165.2339	38.26465	452.17593	84.10741	13.37262	447.33188	456.63245	866.21979				379.79675	419.5321	481.96912	410.38239	390.2991	336.64688	336.18735	371.80756	92.32047	259.88281	324.29709	36.56703	448.23346	415.12891	2.60063	965.67474	-21.40953	9.74698	1955.65491	-11.8066	-14.00936	-4.60406	1.00681	9.24365
104	0.858	347.13568	249.85237	1727.71948	400.18381	152.71545	1623.48401	398.58926	364.73999	1634.75623	236.63293	180.64833	1331.27136	381.44955	18.06999	1345.09875	380.32483	499.39047	1364.93738	288.38379	257.87256	984.56274	385.00391	-27.93872	1110.42468	616.65704	24.4938	1156.26953	413.51349	544.50897	1101.97717	619.24121	458.14178	1158.00488	427.74551	57.63385	879.78015				357.66403	81.05013	478.86649	389.80856	135.48361	228.73669	343.81305	123.35787	95.28453	255.02554	165.02025	38.16899	452.17593	84.10741	13.37262	447.33188	456.63245	866.21979				379.79675	419.5321	481.96912	409.96365	390.65836	336.5134	336.18735	371.80756	92.32047	259.88281	324.29709	36.56703	448.3663	414.76212	2.92389	965.91101	-21.14479	9.93127	1955.65491	-11.8066	-14.00936	-4.2835	0.95118	8.9866
105	0.867	347.13568	249.85237	1727.71948	400.18381	152.71545	1623.48401	398.64871	364.97195	1634.67944	236.63293	180.64833	1331.27136	381.44955	18.06999	1345.09875	380.53656	499.39612	1365.21729	288.38379	257.87256	984.56274	385.00391	-27.93872	1110.42468	616.65704	24.4938	1156.26953	413.7254	544.42535	1101.19006	619.24121	458.14178	1158.00488	427.74551	57.63385	879.78015				358.37079	80.88235	479.16693	389.74646	134.73021	228.75128	343.81305	123.35787	95.28453	255.02554	165.02025	38.16899	452.17593	84.10741	13.37262	447.33188	456.63245	866.21979				379.79675	419.5321	481.96912	410.38239	390.2991	336.64688	336.18735	371.80756	92.32047	260.23984	324.35254	36.48975	447.66922	415.13538	2.67758	965.91101	-21.14479	9.93127	1956.15808	-11.79542	-13.62272	-4.2835	0.95118	8.9866
